<svg width="284" height="117" viewBox="0 0 284 117" fill="none" xmlns="http://www.w3.org/2000/svg">
<path d="M179.917 108.664C180.241 109.187 180.56 109.705 180.901 110.251C179.325 111.158 177.068 106.275 176.236 111.114C167.933 103.028 159.726 95.0367 151.283 86.8172C151.932 90.1195 153.138 93.0153 154.435 95.783C155.742 98.5729 154.814 99.9206 152.412 101.118C151.898 101.374 150.334 101.29 151.071 102.588C151.462 103.279 151.943 104.715 153.306 103.685C153.82 103.301 154.094 103.685 153.993 103.925C153.362 105.4 154.356 106.13 155.234 106.954C155.479 107.182 155.915 107.427 155.552 107.856C155.178 108.296 154.736 108.251 154.362 107.85C153.546 106.965 152.457 106.185 152.004 105.139C150.998 102.833 148.501 103.111 146.931 101.858C146.635 101.619 146.227 101.714 145.942 102.042C145.45 102.61 145.797 103.095 146.138 103.524C147.182 104.827 148.305 106.068 149.317 107.394C150.267 108.636 149.523 108.574 148.568 108.251C147.836 106.965 146.898 105.857 145.73 104.944C145.657 104.465 145.339 104.214 144.914 104.053C144.819 104.353 144.73 104.648 144.635 104.949C144.255 104.949 143.869 104.949 143.489 104.944C143.378 104.782 143.266 104.621 143.149 104.459L143.009 104.66C143.182 104.738 143.355 104.816 143.528 104.893C143.372 105.796 144.003 106.191 144.635 106.586C144.786 107.271 145.49 107.767 145.311 108.569C143.97 108.146 143.255 106.976 142.567 105.946C141.327 104.075 139.668 103.15 137.506 102.928C137.12 102.889 136.813 102.894 136.528 103.195C135.528 104.253 135.774 106.503 133.505 106.341C133.678 107.049 133.84 107.756 134.025 108.457C134.181 109.064 134.366 109.671 134.561 110.351C133.522 110.362 133.036 109.705 132.416 109.198C132.086 108.931 131.466 108.385 130.98 109.009C130.594 109.499 130.879 110.045 131.226 110.496V110.507C130.566 108.547 128.343 109.839 127.41 108.391C126.024 112.4 129.572 113.982 131.192 117C128.706 114.6 126.588 112.556 124.476 110.512C123.605 109.326 122.862 108.012 121.186 107.321V109.387C119.068 107.166 117.56 104.532 116.023 101.914C115.61 101.213 115.302 100.349 114.28 100.299C113.637 100.266 112.928 100.115 112.425 100.639C111.794 101.302 112.213 101.814 112.81 102.215C113.626 102.761 112.386 103.863 113.408 104.348L113.392 104.303C112.9 104.47 111.961 104.108 111.956 104.743C111.928 107.383 109.978 106.714 108.346 106.759C108.654 108.324 109.754 108.691 110.905 109.432C109.319 109.432 107.67 109.716 106.167 109.371C103.351 108.73 100.681 110.022 97.7923 109.688C96.2391 109.51 93.9986 109.733 92.2219 110.061C90.6184 110.362 90.11 109.56 89.5569 108.897C86.8918 105.695 83.5283 104.403 79.3995 104.03C67.0575 102.917 55.0731 99.631 42.8764 97.6095C33.8756 96.1171 24.7741 95.3208 15.6615 95.0869C11.9573 94.9922 9.471 91.9127 5.85054 92.024C5.23596 92.0407 5.26948 91.1497 5.14657 90.6485C4.68842 88.7997 4.20234 87.0066 1.45906 86.9119C4.54316 84.7401 4.76105 83.1029 3.34192 80.3185C2.34183 78.3638 1.85016 76.192 0.129327 74.5715C-0.133268 74.3265 -0.183552 72.1268 1.86134 72.0655C4.27497 71.9876 4.29732 71.737 4.58227 69.1921C4.66607 68.4681 5.05717 67.8444 6.18577 68.0393C19.0362 70.2278 32.0597 70.9574 44.9995 72.383C47.1282 72.6168 49.2681 72.7338 51.3856 73.0345C52.8439 73.2405 54.1177 72.6391 54.7826 71.659C55.4642 70.6566 54.0786 69.9327 53.4584 69.1921C51.732 67.126 49.9609 65.0934 48.1563 63.0942C47.5864 62.4594 47.1338 61.3289 45.9493 61.9526C45.5862 62.142 45.3795 62.3313 45.5974 61.8134C46.3516 60.037 44.8152 59.2908 43.9939 58.3441C35.4847 48.5152 26.9531 38.7086 18.3322 28.9743C17.2762 27.7826 16.9689 26.7079 17.3153 25.2934L17.2762 25.3324C17.455 25.3101 17.6394 25.2878 17.8182 25.2655C16.779 22.0022 19.6005 18.338 16.7622 15.264L16.7231 15.3086C17.0807 15.1693 18.1199 16.3722 17.7455 14.8129C17.6059 14.2227 17.0527 13.7382 17.3097 13.0476L17.2706 13.0922C18.1255 13.9108 18.9747 14.735 19.8463 15.5313C19.9413 15.6204 20.1927 15.5425 20.3715 15.5425C21.204 14.3953 19.5949 13.8106 19.7625 12.8138C20.4888 12.3905 21.0531 13.6045 21.813 13.0031C22.0364 11.6276 20.1536 11.3881 20.1759 10.0071C21.556 9.52818 22.1817 11.0429 23.26 11.171C23.9417 10.5027 22.327 9.89572 23.2991 9.23303C24.5786 9.7565 24.6177 11.4104 25.8078 12.1065C25.845 10.4693 27.0537 10.2168 29.4338 11.3492C29.7076 10.6085 29.9869 9.86787 30.2495 9.12166C30.3613 8.80424 30.4115 8.08586 30.6853 8.30305C32.2888 9.58386 34.5907 8.94346 36.0378 9.97368C43.3457 15.1861 48.0445 22.8431 53.7937 29.4978C67.3313 45.1739 80.623 61.0672 93.8869 76.9716C95.8424 79.3161 97.8537 80.3964 100.943 79.6168C100.575 77.7791 99.2896 76.3925 98.3789 74.8444C96.0714 70.9239 93.6578 67.0703 91.3783 63.1388C90.8419 62.2088 89.5848 61.5238 90.1435 60.0871C91.0095 57.8652 92.0208 55.2645 94.4959 55.0808C96.3787 54.936 95.82 54.5963 95.5518 53.5382C95.3619 52.792 95.5183 51.9623 95.5183 51.0156C96.943 51.5613 96.1776 54.1898 97.6805 53.3934C98.4627 52.9758 100.273 51.2439 98.7924 49.4619C99.8539 48.6266 100.563 50.2415 101.619 49.434C100.893 47.9138 101.932 45.9591 100.368 44.4277C102.849 45.9034 104.195 48.2089 105.57 50.4921C113.308 63.3838 120.867 76.3813 128.991 89.0392C129.382 89.6517 129.807 90.2365 130.667 91.5061C130.639 88.7719 129.834 87.0344 129.069 85.3025C123.666 73.0902 118.208 60.9001 112.218 48.9551C110.654 45.8366 111.28 41.9552 108.967 39.026C108.777 38.7865 108.922 38.0459 109.168 37.7563C109.525 37.3275 109.944 37.7173 110.347 37.9846C111.101 38.4803 111.922 38.8812 112.715 39.3211L112.727 39.3044C112.995 39.7165 113.274 40.1119 113.816 40.1787C113.839 39.8557 113.861 39.5327 113.883 39.2098C114.699 36.9655 115.04 38.625 115.442 39.4381C115.52 38.5025 115.593 37.606 115.66 36.7261C116.615 36.5813 116.42 38.3522 117.699 37.6951C117.783 36.1414 115.688 35.3395 116.157 33.6521C117.146 33.1008 116.822 32.5439 116.168 31.9815C117.308 30.1605 116.671 28.5455 115.593 26.9807C115.258 25.2544 114.38 23.7564 113.548 22.1582C114.61 21.6904 114.811 22.5758 115.107 23.1605C116.409 25.711 117.682 28.2782 118.934 30.8566C119.308 31.6251 119.571 32.8224 120.632 32.2822C121.588 31.7921 121.856 30.7396 120.755 29.8152C120.236 29.3809 119.839 28.7683 120.923 28.4342C121.141 28.54 121.471 28.7906 121.565 28.7237C121.934 28.462 121.728 28.1223 121.543 27.816C121.437 26.7413 120.403 25.9282 120.666 24.6196C121.521 24.8312 122.901 25.7222 122.309 23.6617L122.264 23.7007C124.46 25.8948 125.298 28.8685 126.65 31.5304C127.46 33.1175 128.622 34.3928 129.577 35.8462C129.712 36.0523 129.946 36.4142 130.047 36.3864C133.237 35.4564 134.042 38.3633 135.5 39.9226C143.227 48.1866 150.814 56.5843 158.485 64.9041C159.15 65.628 159.636 66.6026 160.916 66.9924C156.39 46.594 149.367 27.287 138.874 8.88777C140.01 9.47806 141.277 10.9222 142.674 13.2203C145.098 18.4716 147.523 23.723 149.948 28.9688C149.099 24.2465 147.479 19.8527 145.344 15.6316C145.11 15.1638 143.573 14.4454 145.166 13.6825C145.355 13.766 145.54 13.8495 145.724 13.9331C145.523 13.8551 145.322 13.7827 145.121 13.7048C145.473 13.0811 144.584 12.0063 145.853 11.7223C145.864 11.8782 145.953 11.9506 146.11 11.9339V12.0842L146.194 12.0063C146.406 12.1845 146.618 12.3627 146.825 12.5465C146.97 13.4987 147.451 14.2282 148.294 14.7294C149.937 15.6984 149.658 14.5735 149.529 13.6101C149.529 12.3014 149.535 10.9983 149.54 9.68967C149.574 8.95459 149.613 8.21951 149.646 7.48444L149.691 7.41204C150.557 7.58467 150.674 8.38658 150.853 8.99357C151.188 10.1574 151.613 8.84322 151.943 9.09938C153.468 9.21633 152.865 8.07473 152.881 7.41204C152.937 5.16226 152.904 2.91247 152.904 0C153.133 1.60938 153.356 2.57834 153.39 3.55288C153.457 5.64674 153.58 7.62365 155.999 8.52023C156.412 8.67615 156.826 9.33884 156.898 9.81775C157.111 11.2322 158.865 11.3714 159.144 12.6912C159.172 12.8138 159.636 12.9752 159.826 12.914C160.413 12.7191 160.251 12.1566 160.206 11.7446C159.904 8.73741 160.016 5.67458 158.748 2.71199C160.709 2.36673 161.34 3.99281 162.452 4.75574C163.089 6.18691 163.799 7.33965 165.352 5.34046C165.598 6.29272 165.821 7.15588 166.045 8.02461C166.128 8.41999 166.207 8.82094 166.29 9.21633C166.352 9.56716 166.413 9.92356 166.475 10.2744C166.57 11.3046 166.173 12.8973 167.939 12.5353C169.497 12.2123 167.989 11.0485 168.157 10.2855C171.693 9.19962 171.062 12.2959 171.492 13.8718C172.71 18.3714 173.615 22.9489 174.693 27.7047C177.711 25.9282 177.671 23.439 177.157 20.404C178.677 21.2059 180.269 22.3809 180.409 19.7357C182.275 18.3937 179.375 18.0094 179.845 16.9458C181.124 15.4979 182.286 16.3277 183.454 17.124C183.605 17.2298 183.795 17.4358 183.918 17.408C189.281 16.1383 191.416 20.9831 194.863 23.2441C204.126 29.314 212.34 36.7205 220.553 44.0936C221.994 45.3911 222.603 44.734 223.614 43.6536C232.811 33.7969 240.392 22.6928 248.466 11.9617C248.907 11.3714 249.315 10.4526 249.885 10.3245C251.164 10.0405 249.952 10.9872 250.203 11.2879C248.058 13.6825 246.181 16.2775 244.505 19.0174C244.354 19.2401 244.203 19.4629 244.052 19.6801C243.415 20.0365 243.058 20.5989 242.873 21.2894C242.717 21.501 242.555 21.7127 242.398 21.9243C241.907 22.147 241.683 22.4979 241.845 23.0436C241.404 22.9712 241.298 23.2385 241.281 23.5949C241.152 23.6951 241.018 23.7954 240.89 23.8901C240.979 23.9792 241.074 24.0738 241.164 24.1629C241.242 24.0126 241.314 23.8622 241.393 23.7119C241.789 23.684 241.901 23.4334 241.884 23.0826C242.421 23.0659 242.549 22.6594 242.678 22.2528C242.868 22.0468 243.058 21.8463 243.247 21.6403C243.65 21.1112 244.046 20.5822 244.449 20.0587C244.622 19.875 244.795 19.6912 244.974 19.5074C246.795 18.1375 247.326 15.4979 249.729 14.696C249.472 16.2887 247.952 17.1296 247.388 18.5663C249.455 17.2743 251.042 15.5313 252.433 13.5934C252.801 13.2426 253.26 12.8973 252.5 12.4796L252.472 12.5297C254.243 13.1869 254.276 10.7756 255.69 10.7422C255.908 11.5942 255.103 12.0174 254.885 12.6745C254.483 13.8997 253.137 15.303 255.791 15.8209C257.221 16.0993 255.087 17.3802 256.159 18.0373C257.193 18.0039 257.701 16.8567 258.763 16.6172C259.623 17.731 256.64 18.7278 258.551 19.7079C259.763 20.3316 259.987 19.0229 260.383 18.2489C260.953 17.976 261.294 18.1097 261.741 18.6331C263.171 20.3038 264.808 20.1868 266.468 18.9116C267.741 19.5798 268.837 19.3905 269.982 18.4716C271.066 17.6029 272.105 16.5393 273.876 16.7175C272.725 17.5194 271.574 18.3213 270.429 19.1287C268.775 20.2815 268.965 21.7572 270.943 23.1104L270.932 23.0881C269.485 26.3904 266.803 28.746 264.406 31.2743C260.445 35.4508 256.277 39.4381 252.192 43.4977C251.466 44.2161 250.673 44.8676 250.773 46.0649C251.41 53.5215 250.259 61.0449 251.773 68.4848C252.187 70.5174 252.947 72.0266 254.439 73.441C261.612 80.2182 270.088 85.3861 277.362 92.0296C279.53 94.0065 281.81 95.8553 284 98.0662C281.581 97.2531 281.151 99.7758 279.609 100.349C278.698 100.689 278.43 101.764 276.809 101.385C274.871 100.934 276.508 103.034 275.966 103.813C274.021 104.615 273.027 101.92 270.837 102.438C271.708 103.535 273.368 104.598 271.032 105.534C271.016 105.539 271.127 105.862 271.183 106.041C269.246 106.98 269.362 108.693 271.53 111.181C268.736 110.39 267.267 108.09 265.138 106.753C264.858 106.286 264.378 105.656 263.948 106.007C263.233 106.581 264.015 107.043 264.412 107.472C264.529 108.118 265.233 108.658 264.752 109.404L264.797 109.349C256.478 103.429 248.918 96.5849 241.035 90.1306C235.358 85.4863 229.704 80.8085 224.145 76.0305C222.81 74.8833 222.19 75.1729 220.977 76.192C217.815 78.8483 217.519 83.3757 214.273 85.9541C213.356 86.6836 212.731 87.7973 212.027 88.7774C208.518 93.6613 202.819 96.3788 199.472 101.413C198.774 102.46 197.204 101.329 196.556 102.543C196.779 101.847 196.997 101.157 197.221 100.461L197.271 100.383L197.198 100.472C195.913 100.789 193.556 100.672 194.204 102.449C195.031 104.726 195.695 107.483 198.333 108.736C198.718 109.883 200.154 110.306 200.4 111.827C198.159 111.481 197.388 109.426 195.857 108.43C195.517 108.073 195.109 107.372 194.651 107.901C194.226 108.391 194.98 108.68 195.355 108.959C195.466 110.201 196.981 110.607 197.21 112.166C195.232 110.735 193.986 107.984 191.349 108.992C189.695 109.621 190.611 111.57 190.6 113.236C188.052 111.476 186.203 109.12 183.566 107.806C182.683 107.366 181.817 106.33 181.527 108.263L181.566 108.224C181.219 108.196 180.867 108.173 180.521 108.146C180.191 107.722 179.716 107.288 179.314 107.828C179.023 108.218 179.605 108.485 179.979 108.664H179.917ZM189.628 106.263C189.879 106.514 190.147 106.87 190.511 106.514C190.611 106.414 190.466 106.057 190.432 105.818C190.192 104.648 189.002 104.648 188.639 105.088C188.136 105.69 189.17 105.935 189.628 106.263ZM177.839 45.7141C177.459 45.4357 177.074 45.1572 176.425 44.6783C177.761 49.7682 178.733 54.5963 180.605 59.1627C180.683 55.4316 179.521 51.8453 179.822 48.1309L179.778 48.1699C180.649 49.6512 180.482 51.3887 180.957 52.9591C182.588 58.3274 181.7 64.0409 183.253 69.4092C184.516 73.7696 185.851 78.1077 187.203 82.4402C187.399 83.0694 187.32 83.9493 188.421 84.2723C193.975 77.4951 199.489 70.6288 205.171 63.9073C206.596 62.2255 206.205 61.4849 204.702 60.2375C196.623 53.5382 188.628 46.7332 180.627 39.9337C179.968 39.3768 178.996 39.0371 178.984 37.8677C178.968 36.2917 177.811 35.6402 176.308 34.8438C176.99 38.5471 177.604 41.8995 178.219 45.2575C178.09 45.4078 177.962 45.5582 177.839 45.7085V45.7141ZM249.628 46.9671C249.377 46.8891 249.131 46.8111 248.879 46.7332C245.354 50.6536 241.84 54.5851 238.303 58.4944C237.772 59.0792 237.632 59.6026 238.303 60.1317C242.247 63.2613 246.203 66.3798 250.801 70.0218C249.142 61.8691 249.79 54.3958 249.628 46.9615V46.9671ZM240.258 24.4915C240.029 24.8256 239.839 25.0372 239.744 25.2822C239.694 25.4048 239.811 25.5997 239.856 25.7612C240.057 25.583 240.286 25.4215 240.437 25.2099C240.499 25.1208 240.37 24.9091 240.264 24.497L240.258 24.4915ZM133.706 105.729C133.561 105.306 133.399 104.882 132.868 104.832C132.46 104.793 132.136 104.96 132.304 105.406C132.416 105.695 132.701 105.968 132.974 106.13C133.349 106.352 133.583 106.102 133.701 105.729H133.706Z" fill="#F554D1"/>
<path d="M69.7521 22.904C69.9652 22.7764 70.1727 22.6488 70.3858 22.5267C70.8906 22.5322 71.3842 24.086 71.8945 22.5378C72.0796 22.3491 72.2703 22.1605 72.4554 21.9718C73.162 22.6654 73.3022 21.3281 73.8855 21.5834C73.9584 21.6888 74.0538 21.7665 74.1659 21.8164C75.7138 22.9318 76.0952 21.1783 76.987 20.6955C77.3515 19.7854 77.144 18.3704 78.1311 18.0597C79.2976 17.6934 79.7239 19.1029 80.3352 19.8354C85.6239 26.1503 90.8117 32.5428 96.1678 38.7966C97.4521 40.2949 98.3831 41.8542 98.0802 43.6854C97.8334 45.167 98.9383 46.0715 99 47.3312H98.9944C97.5362 47.764 97.4913 44.8563 95.534 46.0327C94.0197 46.9372 93.1897 48.9348 94.0085 51.1822C93.672 52.0257 91.4174 48.7739 92.068 52.0146C92.1185 52.2754 91.0192 52.9468 90.0377 52.4807C88.0636 51.5374 88.0692 52.7471 88.7534 55C83.173 48.1857 78.1423 42.0429 73.1171 35.9C71.8833 34.3962 70.6326 32.9035 69.4492 31.3609C68.8491 30.5784 68.6585 29.8848 70.111 30.4286C70.2849 30.6173 70.4644 30.8059 70.6382 30.9946C70.8906 31.2221 71.1486 31.4496 71.401 31.6772C71.816 31.15 71.4066 30.8836 71.0532 30.5951C70.9299 30.3509 70.8065 30.1123 70.6831 29.8682C70.2512 29.1967 69.8194 28.5308 69.3875 27.8594C70.5541 26.2834 69.7465 24.5688 69.7409 22.9151L69.7521 22.904Z" fill="#F554D1"/>
<path d="M120.661 6.00275C121.63 6.11761 122.07 7.01232 121.991 8.42088C121.956 9.104 121.586 10.2526 121.282 9.95034C120.511 9.18863 119.04 9.43045 119.001 7.62894C118.978 6.54682 119.683 5.95438 120.661 6.00275Z" fill="#F554D1"/>
<path d="M178 17C175.112 16.5523 173.697 14.5295 171 13.0651C172.811 12.7543 173.308 13.6498 174.156 13.7815C175.373 14.598 176.585 15.4092 177.802 16.2257C177.866 16.4838 177.936 16.7419 178 17Z" fill="#F554D1"/>
<path d="M223.938 81.006C224.526 81.316 225.038 81.7513 224.998 82.6458C224.967 83.3673 224.548 84.0232 224.036 83.9994C223.434 83.9755 222.962 83.3434 223.002 82.443C223.034 81.7096 223.461 81.2862 223.942 81L223.938 81.006Z" fill="#F554D1"/>
<path d="M250.005 13.7992C250.197 13.0683 250.388 12.3374 250.58 11.6066C251.297 10.8537 251.912 10.5029 251.975 12.374L252 12.3082C251.627 12.0889 251.528 12.469 251.445 12.871C250.919 13.0245 250.791 14.5447 250 13.7919L250.005 13.7992Z" fill="#F554D1"/>
<path d="M180 16.9988C179.041 17.0236 178.798 16.6762 179.159 16C179.442 16.335 179.717 16.6638 180 16.9988Z" fill="#F554D1"/>
<path d="M181 108.069C181.312 108.382 181.624 108.696 181.945 109L182 108.931C181.468 108.873 181.073 108.657 181.064 108L181 108.069Z" fill="#F554D1"/>
<path d="M178 17C178.909 17.4356 179.632 18.2995 180 19.9978C178.881 20.0569 178.273 18.9124 178 17V17Z" fill="#F554D1"/>
<path d="M115.995 32C115.995 32.6544 115.995 33.3088 115.995 33.9632C115.326 34.1665 115.11 33.4867 115.021 32.9276C114.854 31.892 115.729 32.4257 116 32H115.995Z" fill="#F554D1"/>
<path d="M249.761 13C250.299 14.3206 249.844 14.7321 249.229 15C248.707 13.6986 249.162 13.2871 249.761 13Z" fill="#F554D1"/>
<path d="M145.009 105.006C145.322 105.006 145.635 105.006 145.948 105C145.985 105.987 146.266 107.216 145 106.968C145 106.312 145.009 105.662 145.009 105.006Z" fill="#F554D1"/>
<path d="M71.5191 22.9916C71.2305 22.4441 70.7014 21.8039 71.2161 21.13C71.5864 20.6415 71.7836 21.6523 72 22.1408C71.8413 22.4272 71.6778 22.7136 71.5191 23V22.9916Z" fill="#F554D1"/>
<path d="M180 47.9581C179.299 47.5689 179.247 46.9641 179 46C180.286 46.6587 179.669 47.4611 179.948 48L180 47.9581V47.9581Z" fill="#F554D1"/>
<path d="M178.497 45C178.672 45.2371 179.052 45.5853 178.994 45.6964C178.65 46.3261 178.322 45.8149 178 45.6001C178.168 45.4001 178.329 45.2 178.497 45Z" fill="#F554D1"/>
</svg>
