<svg width="13" height="13" viewBox="0 0 13 13" fill="none" xmlns="http://www.w3.org/2000/svg">
<path d="M12.4 0.7C12.3 0.4 12.1 0.2 11.8 0.1C11.7 0 11.5 0 11.4 0H1C0.7 0.1 0.5 0.2 0.3 0.4C0.1 0.6 0 0.8 0 1.1C0 1.4 0.1 1.6 0.3 1.8C0.5 2 0.7 2.1 1 2.1H8.9L0.3 10.7C0.2 10.8 0.1 10.9 0.1 11C0 11.1 0 11.3 0 11.4C0 11.5 0 11.7 0.1 11.8C0.2 11.9 0.2 12 0.3 12.1C0.4 12.2 0.5 12.3 0.6 12.3C0.7 12.4 0.9 12.4 1 12.4C1.1 12.4 1.3 12.4 1.4 12.3C1.5 12.4 1.6 12.3 1.7 12.2L10.3 3.6V11.5C10.3 11.8 10.4 12 10.6 12.2C10.8 12.4 11.1 12.5 11.3 12.5C11.5 12.5 11.8 12.4 12 12.2C12.2 12 12.3 11.7 12.3 11.5V1.1C12.4 1 12.4 0.8 12.4 0.7V0.7Z" fill="white"/>
</svg>
